<svg width="148" height="40" xmlns="http://www.w3.org/2000/svg"><defs><linearGradient x1="0%" y1="7.7%" x2="97.6%" y2="93.6%" id="a"><stop stop-color="#EAEAEA" offset="0%"/><stop stop-color="#FFF" offset="100%"/></linearGradient></defs><g fill="none" fill-rule="evenodd"><rect fill="url(#a)" fill-rule="nonzero" x="45.8" y="2.7" width="55.1" height="34.7" rx="1"/><rect stroke="#E2189B" stroke-width="4" x="46" y="2" width="55.6" height="36" rx="3"/><path stroke="#E2189B" stroke-width="4" d="M100.2 4.2L73.8 20 46.9 4.2"/><path d="M2.1 17.2a2.6 2.6 0 0 1 0-5.1V12H40v5.3H2.1zM20.9 24.3h-.1a2 2 0 1 1 0-4h18.8v4H20.9zM145.9 17c1.2 0 2.1-1.3 2.1-2.7 0-1.5-1-2.7-2.1-2.8H108V17h37.9zM126.8 20.3a2 2 0 0 1 2 2 2 2 0 0 1-2 2H108v-4h18.8z" fill="#E2189B" fill-rule="nonzero"/></g></svg>