<svg width="162" height="69" xmlns="http://www.w3.org/2000/svg"><defs><linearGradient x1="30.386%" y1="27.857%" x2="190.747%" y2="184.253%" id="a"><stop stop-color="#FFF" offset="0%"/><stop stop-color="#D8D8D8" offset="100%"/></linearGradient></defs><g fill="none" fill-rule="evenodd"><path d="M114 32.5C114 50.45 99.45 65 81.5 65 63.551 65 49 50.45 49 32.5S63.551 0 81.5 0C99.45 0 114 14.55 114 32.5z" stroke="#4A90E2" stroke-width="4" fill="url(#a)" transform="translate(0 2)"/><path stroke="#4A90E2" stroke-width="7" stroke-linecap="round" d="M67 29.713L79.472 44 96 25"/><path d="M2.105 35.21a2.632 2.632 0 0 1 0-5.157V30H40v5.263H2.105v-.052zM21.139 41.995a2 2 0 1 1 0-3.99V38h18.667v4H21.139v-.005zM159.865 34.271c1.2-.155 2.135-1.353 2.135-2.808 0-1.455-.934-2.653-2.135-2.808v-.017H122v5.65h37.865v-.017zM140.836 37.648c1.065.097 1.897.951 1.897 1.99 0 1.04-.832 1.894-1.897 1.991v.01H122v-4h18.836v.009z" fill="#4A90E2" fill-rule="nonzero"/></g></svg>