<svg width="152" height="61" xmlns="http://www.w3.org/2000/svg"><defs><linearGradient x1="30.4%" y1="27.9%" x2="190.7%" y2="184.3%" id="a"><stop stop-color="#FFF" offset="0%"/><stop stop-color="#D8D8D8" offset="100%"/></linearGradient></defs><g fill="none" fill-rule="evenodd"><path d="M104 30.5a28.5 28.5 0 1 1-57 0 28.5 28.5 0 0 1 57 0" fill="#FEFEFE"/><path d="M57 28.5a28.5 28.5 0 1 1-57 0 28.5 28.5 0 0 1 57 0z" stroke="#E2189B" stroke-width="4" fill="url(#a)" transform="translate(47 2)"/><path stroke="#E2189B" stroke-width="7" stroke-linecap="round" d="M63 27l10.8 12L88 23"/><g fill="#E2189B" fill-rule="nonzero"><path d="M2.1 31.2a2.6 2.6 0 0 1 0-5.1V26H40v5.3H2.1zM21.1 38H21a2 2 0 1 1 .1-4h18.7v4H21.1z"/></g><g fill="#E2189B" fill-rule="nonzero"><path d="M149.9 30.3c1.2-.2 2.1-1.4 2.1-2.8 0-1.5-1-2.7-2.1-2.8H112v5.6h37.9zM130.8 33.6a2 2 0 0 1 2 2 2 2 0 0 1-2 2H112v-4h18.8z"/></g></g></svg>